<?xml version="1.0" encoding="UTF-8"?>
<svg id="Icon" enable-background="new 0 0 512 512" version="1.1" viewBox="0 0 512 512" xml:space="preserve" xmlns="http://www.w3.org/2000/svg" xmlns:cc="http://creativecommons.org/ns#" xmlns:dc="http://purl.org/dc/elements/1.1/" xmlns:rdf="http://www.w3.org/1999/02/22-rdf-syntax-ns#" xmlns:xlink="http://www.w3.org/1999/xlink"><metadata><rdf:RDF><cc:Work rdf:about=""><dc:format>image/svg+xml</dc:format><dc:type rdf:resource="http://purl.org/dc/dcmitype/StillImage"/></cc:Work></rdf:RDF></metadata>
<defs>
<linearGradient id="linearGradient1770-2-1"><stop stop-color="#c8c8c8" offset="0"/><stop stop-color="#aaa" offset="1"/></linearGradient><linearGradient id="linearGradient952" x1="351.78" x2="378.69" y1="118.04" y2="118.04" gradientTransform="matrix(.61896 1.0728 -1.0721 .61936 291.2 -384.11)" gradientUnits="userSpaceOnUse" xlink:href="#linearGradient1770-2-1"/><linearGradient id="linearGradient970" x1="351.78" x2="378.69" y1="118.04" y2="118.04" gradientTransform="matrix(.61896 1.0728 -1.0721 .61936 22.973 -384.11)" gradientUnits="userSpaceOnUse" xlink:href="#linearGradient1770-2-1"/><linearGradient id="linearGradient974" x1="147.02" x2="362.55" y1="117.94" y2="392.94" gradientTransform="matrix(1.263 0 0 1.2638 -67.315 -67.527)" gradientUnits="userSpaceOnUse"><stop stop-color="#e6e6e6" offset="0"/><stop stop-color="#a0a0a0" offset="1"/></linearGradient><linearGradient id="linearGradient1017" x1="351.78" x2="378.69" y1="118.04" y2="118.04" gradientTransform="matrix(.61896 1.0728 -1.0721 .61936 291.2 -36.188)" gradientUnits="userSpaceOnUse" xlink:href="#linearGradient1770-2-1"/><linearGradient id="linearGradient1019" x1="351.78" x2="378.69" y1="118.04" y2="118.04" gradientTransform="matrix(.61896 1.0728 -1.0721 .61936 22.973 -36.188)" gradientUnits="userSpaceOnUse" xlink:href="#linearGradient1770-2-1"/><filter id="filter1627" x="-.066429" y="-.054706" width="1.1329" height="1.1094" color-interpolation-filters="sRGB"><feGaussianBlur stdDeviation="9.7865437"/></filter><filter id="filter1715" x="-.084" y="-.084" width="1.168" height="1.168" color-interpolation-filters="sRGB"><feGaussianBlur stdDeviation="3.083383"/></filter></defs><g>
























<rect transform="matrix(.9764 0 0 .97704 6.0408 5.8771)" x="79.211" y="41.327" width="353.58" height="429.35" rx="31.931" ry="31.931" filter="url(#filter1627)" opacity=".15"/><rect x="83.383" y="46.256" width="345.23" height="419.49" rx="31.177" ry="31.198" fill="url(#linearGradient974)"/><path d="m401.37 99.275a21.303 21.317 0 0 1-29.1-7.8024 21.303 21.317 0 0 1 7.7973-29.119 21.303 21.317 0 0 1 29.1 7.8024 21.303 21.317 0 0 1-7.7973 29.119z" opacity=".076"/><path d="m399.92 96.765a18.407 18.419 0 0 1-25.144-6.7418 18.407 18.419 0 0 1 6.7374-25.161 18.407 18.419 0 0 1 25.144 6.7418 18.407 18.419 0 0 1-6.7374 25.161z" opacity=".2"/><path d="m399.04 95.249a16.657 16.668 0 0 1-22.753-6.1007 16.657 16.668 0 0 1 6.0968-22.768 16.657 16.668 0 0 1 22.753 6.1007 16.657 16.668 0 0 1-6.0967 22.768z" fill="url(#linearGradient952)"/></g><g fill="none" stroke-linecap="round"><path d="m383.71 73.802 14.015 14.024" opacity=".4" stroke="#000" stroke-width="5"/><g stroke="#fff"><path d="m247.79 81.531-108.26 108.33" opacity=".25" stroke-width="13.8"/><path d="m318.96 289.89-122.96 123.06" opacity=".2" stroke-width="13.8"/><path d="m404.24 273.57-122.96 123.06" opacity=".2" stroke-width="13.799"/></g></g><g><path d="m133.14 99.275a21.303 21.317 0 0 1-29.1-7.8024 21.303 21.317 0 0 1 7.7973-29.119 21.303 21.317 0 0 1 29.1 7.8024 21.303 21.317 0 0 1-7.7973 29.119z" opacity=".076"/><path d="m131.69 96.765a18.407 18.419 0 0 1-25.144-6.7418 18.407 18.419 0 0 1 6.7374-25.161 18.407 18.419 0 0 1 25.144 6.7418 18.407 18.419 0 0 1-6.7374 25.161z" opacity=".2"/><path d="m130.81 95.249a16.657 16.668 0 0 1-22.753-6.1007 16.657 16.668 0 0 1 6.0968-22.768 16.657 16.668 0 0 1 22.753 6.1007 16.657 16.668 0 0 1-6.0967 22.768z" fill="url(#linearGradient970)"/></g><path d="m127.44 72.226-9.91 17.176" fill="none" opacity=".4" stroke="#000" stroke-linecap="round" stroke-width="5"/><g><path d="m401.37 447.19a21.303 21.317 0 0 1-29.1-7.8024 21.303 21.317 0 0 1 7.7973-29.119 21.303 21.317 0 0 1 29.1 7.8024 21.303 21.317 0 0 1-7.7973 29.119z" opacity=".076"/><path d="m399.92 444.68a18.407 18.419 0 0 1-25.144-6.7418 18.407 18.419 0 0 1 6.7374-25.161 18.407 18.419 0 0 1 25.144 6.7418 18.407 18.419 0 0 1-6.7374 25.161z" opacity=".2"/><path d="m399.04 443.17a16.657 16.668 0 0 1-22.753-6.1007 16.657 16.668 0 0 1 6.0968-22.768 16.657 16.668 0 0 1 22.753 6.1007 16.657 16.668 0 0 1-6.0967 22.768z" fill="url(#linearGradient1017)"/></g><path d="m393.28 438.31-5.1298-19.157" fill="none" opacity=".4" stroke="#000" stroke-linecap="round" stroke-width="5"/><g><path d="m133.14 447.19a21.303 21.317 0 0 1-29.1-7.8024 21.303 21.317 0 0 1 7.7973-29.119 21.303 21.317 0 0 1 29.1 7.8024 21.303 21.317 0 0 1-7.7973 29.119z" opacity=".076"/><path d="m131.69 444.68a18.407 18.419 0 0 1-25.144-6.7418 18.407 18.419 0 0 1 6.7374-25.161 18.407 18.419 0 0 1 25.144 6.7418 18.407 18.419 0 0 1-6.7374 25.161z" opacity=".2"/><path d="m130.81 443.17a16.657 16.668 0 0 1-22.753-6.1007 16.657 16.668 0 0 1 6.0968-22.768 16.657 16.668 0 0 1 22.753 6.1007 16.657 16.668 0 0 1-6.0967 22.768z" fill="url(#linearGradient1019)"/></g><path d="m131.07 433.69-17.165-9.9165" fill="none" opacity=".4" stroke="#000" stroke-linecap="round" stroke-width="5"/><g><path d="m245.44 155.54a31.577 31.649 0 1 0 0 63.291h89.837a31.577 31.649 0 1 0 0-63.291z" color="#000000" color-rendering="auto" dominant-baseline="auto" enable-background="accumulate" fill="#6e6e6e" image-rendering="auto" shape-rendering="auto" solid-color="#000000" style="font-feature-settings:normal;font-variant-alternates:normal;font-variant-caps:normal;font-variant-ligatures:normal;font-variant-numeric:normal;font-variant-position:normal;isolation:auto;mix-blend-mode:normal;shape-padding:0;text-decoration-color:#000000;text-decoration-line:none;text-decoration-style:solid;text-indent:0;text-orientation:mixed;text-transform:none;white-space:normal"/><path d="m245.44 155.54a31.577 31.649 0 1 0 0 63.291h89.837a31.577 31.649 0 1 0 0-63.291zm-0.10542 6.7623h90.048c13.947-0.21736 25.216 10.903 25.216 24.883 0 13.98-11.27 25.1-25.216 24.883h-90.048c-13.947 0.21736-25.216-10.903-25.216-24.883 0-13.98 11.27-25.1 25.216-24.883z" color="#000000" color-rendering="auto" dominant-baseline="auto" enable-background="accumulate" fill="#000001" image-rendering="auto" opacity=".15" shape-rendering="auto" solid-color="#000000" style="font-feature-settings:normal;font-variant-alternates:normal;font-variant-caps:normal;font-variant-ligatures:normal;font-variant-numeric:normal;font-variant-position:normal;isolation:auto;mix-blend-mode:normal;shape-padding:0;text-decoration-color:#000000;text-decoration-line:none;text-decoration-style:solid;text-indent:0;text-orientation:mixed;text-transform:none;white-space:normal"/><circle transform="matrix(1.0456 0 0 1.0463 -12.001 -11.238)" cx="209.87" cy="188.64" r="44.048" filter="url(#filter1715)" opacity=".25"/><path d="m234.54 155.53c8.434 7.4757 13.742 18.396 13.742 30.603 0 13.394-6.3863 25.246-16.287 32.689h14.951c7.36-8.8864 11.792-20.283 11.792-32.689 0-11.456-3.7802-22.05-10.154-30.603z" color="#000000" color-rendering="auto" dominant-baseline="auto" enable-background="accumulate" image-rendering="auto" opacity=".25" shape-rendering="auto" solid-color="#000000" style="font-feature-settings:normal;font-variant-alternates:normal;font-variant-caps:normal;font-variant-ligatures:normal;font-variant-numeric:normal;font-variant-position:normal;isolation:auto;mix-blend-mode:normal;shape-padding:0;text-decoration-color:#000000;text-decoration-line:none;text-decoration-style:solid;text-indent:0;text-orientation:mixed;text-transform:none;white-space:normal"/><ellipse cx="207.45" cy="186.14" rx="46.058" ry="46.089" fill="#464646"/></g><path d="m245.37-72.421h93.207" fill="none" opacity=".441" stroke="#6e6e6e" stroke-linecap="round" stroke-width="65.517"/><g><circle transform="matrix(1.0849 0 0 1.0831 -21.724 -277.82)" cx="209.87" cy="188.64" r="44.048" filter="url(#filter1715)" opacity=".25"/><path d="m234.06-105.18c8.7504 7.7385 14.258 19.043 14.258 31.679 0 13.865-6.6259 26.133-16.898 33.838h15.512c7.636-9.1988 12.234-20.996 12.234-33.838 0-11.859-3.922-22.825-10.535-31.679z" color="#000000" color-rendering="auto" dominant-baseline="auto" enable-background="accumulate" image-rendering="auto" opacity=".25" shape-rendering="auto" solid-color="#000000" style="font-feature-settings:normal;font-variant-alternates:normal;font-variant-caps:normal;font-variant-ligatures:normal;font-variant-numeric:normal;font-variant-position:normal;isolation:auto;mix-blend-mode:normal;shape-padding:0;text-decoration-color:#000000;text-decoration-line:none;text-decoration-style:solid;text-indent:0;text-orientation:mixed;text-transform:none;white-space:normal"/><ellipse cx="205.96" cy="-73.502" rx="47.786" ry="47.709" fill="#3c3c3c"/><path d="m275.56 277.8a31.577 31.649 0 1 1 0 63.291h-89.837a31.577 31.649 0 1 1 0-63.291z" color="#000000" color-rendering="auto" dominant-baseline="auto" enable-background="accumulate" fill="#1d99f3" image-rendering="auto" opacity=".382" shape-rendering="auto" solid-color="#000000" style="font-feature-settings:normal;font-variant-alternates:normal;font-variant-caps:normal;font-variant-ligatures:normal;font-variant-numeric:normal;font-variant-position:normal;isolation:auto;mix-blend-mode:normal;shape-padding:0;text-decoration-color:#000000;text-decoration-line:none;text-decoration-style:solid;text-indent:0;text-orientation:mixed;text-transform:none;white-space:normal"/><path d="m275.56 277.8a31.577 31.649 0 1 1 0 63.291h-89.837a31.577 31.649 0 1 1 0-63.291zm0.10543 6.7623h-90.048c-13.947-0.21735-25.216 10.903-25.216 24.883 0 13.98 11.27 25.1 25.216 24.883h90.048c13.947 0.21736 25.216-10.903 25.216-24.883 0-13.98-11.27-25.1-25.216-24.883z" color="#000000" color-rendering="auto" dominant-baseline="auto" enable-background="accumulate" fill="#000001" image-rendering="auto" opacity=".15" shape-rendering="auto" solid-color="#000000" style="font-feature-settings:normal;font-variant-alternates:normal;font-variant-caps:normal;font-variant-ligatures:normal;font-variant-numeric:normal;font-variant-position:normal;isolation:auto;mix-blend-mode:normal;shape-padding:0;text-decoration-color:#000000;text-decoration-line:none;text-decoration-style:solid;text-indent:0;text-orientation:mixed;text-transform:none;white-space:normal"/><circle transform="matrix(-1.0456 0 0 1.0463 533 111.02)" cx="209.87" cy="188.64" r="44.048" filter="url(#filter1715)" opacity=".25"/><path d="m286.46 277.8c-8.434 7.4757-13.742 18.396-13.742 30.603 0 13.394 6.3864 25.246 16.287 32.689h-14.951c-7.36-8.8864-11.792-20.283-11.792-32.689 0-11.456 3.7802-22.05 10.154-30.603z" color="#000000" color-rendering="auto" dominant-baseline="auto" enable-background="accumulate" image-rendering="auto" opacity=".124" shape-rendering="auto" solid-color="#000000" style="font-feature-settings:normal;font-variant-alternates:normal;font-variant-caps:normal;font-variant-ligatures:normal;font-variant-numeric:normal;font-variant-position:normal;isolation:auto;mix-blend-mode:normal;shape-padding:0;text-decoration-color:#000000;text-decoration-line:none;text-decoration-style:solid;text-indent:0;text-orientation:mixed;text-transform:none;white-space:normal"/><ellipse transform="scale(-1,1)" cx="-313.55" cy="308.4" rx="46.058" ry="46.089" fill="#1d99f3"/></g></svg>
