<?xml version="1.0" encoding="UTF-8"?>
<svg id="Icon" enable-background="new 0 0 512 512" version="1.1" viewBox="0 0 512 512" xml:space="preserve" xmlns="http://www.w3.org/2000/svg" xmlns:cc="http://creativecommons.org/ns#" xmlns:dc="http://purl.org/dc/elements/1.1/" xmlns:rdf="http://www.w3.org/1999/02/22-rdf-syntax-ns#" xmlns:xlink="http://www.w3.org/1999/xlink"><metadata><rdf:RDF><cc:Work rdf:about=""><dc:format>image/svg+xml</dc:format><dc:type rdf:resource="http://purl.org/dc/dcmitype/StillImage"/></cc:Work></rdf:RDF></metadata>
<defs><linearGradient id="linearGradient1770"><stop stop-color="#d7d7d7" offset="0"/><stop stop-color="#a5a5a5" offset="1"/></linearGradient>
<linearGradient id="linearGradient916"><stop offset="0"/><stop stop-opacity="0" offset="1"/></linearGradient><radialGradient id="radialGradient839" cx="103.18" cy="71.987" r="23.805" gradientTransform="matrix(4.0815 0 0 1.0595 -165.13 410.51)" gradientUnits="userSpaceOnUse" xlink:href="#linearGradient916"/><linearGradient id="linearGradient1764" x1="211.75" x2="211.75" y1="236.59" y2="315.24" gradientTransform="matrix(1.007 0 0 1 -1.4273 0)" gradientUnits="userSpaceOnUse" xlink:href="#linearGradient1770"/><radialGradient id="radialGradient1811" cx="103.18" cy="71.987" r="23.805" gradientTransform="matrix(.93187 0 0 .24191 160.28 436.75)" gradientUnits="userSpaceOnUse" xlink:href="#linearGradient916"/><linearGradient id="linearGradient1946" x1="511.12" x2="511.12" y1="237.14" y2="314.15" gradientTransform="matrix(1.007 0 0 1 -2.1051 0)" gradientUnits="userSpaceOnUse" xlink:href="#linearGradient1770"/><radialGradient id="radialGradient2014" cx="103.18" cy="71.987" r="23.805" gradientTransform="matrix(1.0019 0 0 .26826 305.26 96.215)" gradientUnits="userSpaceOnUse" xlink:href="#linearGradient916"/></defs>

<path d="m256 461.56a97.39 25.225 0 0 0-97.39 25.226 97.39 25.225 0 0 0 97.39 25.218 97.39 25.225 0 0 0 97.39-25.218 97.39 25.225 0 0 0-97.39-25.226z" fill="url(#radialGradient839)" stroke-width="6.9373"/><path d="m256 461.56a97.39 25.225 0 0 0-97.39 25.226 97.39 25.225 0 0 0 97.39 25.218 97.39 25.225 0 0 0 97.39-25.218 97.39 25.225 0 0 0-97.39-25.226z" fill="url(#radialGradient839)" opacity=".7" stroke-width="6.9373"/><path id="bottomrim" d="m187.13 450.86c-0.0391 0.01-0.0762 0.0181-0.11549 0.0283 0 0-13.733 14.636-13.803 31.924-0.0182 0.10992-0.033 0.21997-0.0446 0.32999 0.0216 0.13754 0.0484 0.27505 0.0802 0.41249 0.0347 0.33238 0.0951 0.64694 0.18618 0.93809 2.7966 11.353 39.088 20.193 82.991 20.193 43.903 0 80.195-8.8407 82.991-20.193 0.0912-0.29115 0.15145-0.60571 0.18622-0.93809 0.0318-0.13744 0.0585-0.27495 0.0802-0.41249-0.012-0.11004-0.0264-0.22003-0.0446-0.32999-0.0703-17.288-13.803-31.924-13.803-31.924-0.0392-0.01-0.0763-0.0188-0.1155-0.0283 0.93677 1.1798 1.4231 2.3806 1.452 3.5851-0.0438 10.12-31.689 16.691-70.746 16.691-39.058 0-62.16-4.266-62.204-14.386 0.0287-1.2045-8.0272-4.7104-7.0904-5.8902z" fill="#c8c8c8"/><path d="m256.4 436.06a70.98 18.408 0 0 0-70.977 18.388 70.98 18.408 0 0 0 70.977 18.388 70.98 18.408 0 0 0 70.963-18.318h0.0597v-0.1395h-0.0597a70.98 18.408 0 0 0-70.963-18.318z" fill="#dcdcdc"/><path d="m256.43 448.41a22.236 5.7593 0 0 0-22.236 5.7594 22.236 5.7593 0 0 0 22.236 5.7576 22.236 5.7593 0 0 0 22.236-5.7576 22.236 5.7593 0 0 0-22.236-5.7594z" fill="url(#radialGradient1811)" opacity=".5" stroke-width="6.9373"/><g><path d="m241.06 261.82a10.001 10.001 0 0 0-7.0039 2.7109s-43.471 38.739-90.207 46.203c-24.264 3.8754-40.712 1.9528-50.861-0.6543-10.149-2.6071-13.102-5.1855-13.102-5.1856a10.001 10.001 0 1 0-12.201 15.848s7.3922 5.3864 20.326 8.709c12.934 3.3226 32.307 5.2957 58.994 1.0332 42.185-6.7377 78.561-33.046 93.383-45.08v167.69c-0.0269 0.0956-0.0421 0.19118-0.043 0.28711 0.0102 2.2388 7.0081 4.0528 15.641 4.0527 8.6055-6.8e-4 15.594-1.8034 15.637-4.0352h0.0137v-0.0313h-0.0137c-8e-3 -0.0481-0.0179-0.0966-0.0312-0.14453h0.0586v-167.42c15.149 12.222 51.204 38.02 92.891 44.678 26.687 4.2625 46.06 2.2894 58.994-1.0332 12.934-3.3226 20.326-8.709 20.326-8.709a10.001 10.001 0 1 0-12.201-15.848s-2.9527 2.5784-13.102 5.1856c-10.149 2.6072-26.599 4.5297-50.863 0.6543-46.736-7.4646-90.205-46.203-90.205-46.203a10.001 10.001 0 0 0-7.3047-2.7012 10.001 10.001 0 0 0-7.8359 4.4238h-13.15a10.001 10.001 0 0 0-8.1387-4.4336z" color="#000000" color-rendering="auto" dominant-baseline="auto" enable-background="accumulate" fill="#c8c8c8" image-rendering="auto" shape-rendering="auto" solid-color="#000000" style="font-feature-settings:normal;font-variant-alternates:normal;font-variant-caps:normal;font-variant-ligatures:normal;font-variant-numeric:normal;font-variant-position:normal;isolation:auto;mix-blend-mode:normal;shape-padding:0;text-decoration-color:#000000;text-decoration-line:none;text-decoration-style:solid;text-indent:0;text-orientation:mixed;text-transform:none;white-space:normal"/><path d="m406.49 265.59a105.99 27.487 0 0 1-105.98-27.456 105.99 27.487 0 0 1 105.98-27.456 105.99 27.487 0 0 1 105.96 27.352h0.0891v0.20816h-0.0891a105.99 27.487 0 0 1-105.96 27.352z" fill="#aaa"/><path d="m105.82 265.59a105.99 27.487 0 0 0 105.98-27.456 105.99 27.487 0 0 0-105.98-27.456 105.99 27.487 0 0 0-105.96 27.352h-0.089131v0.20816h0.089131a105.99 27.487 0 0 0 105.96 27.352z" fill="#aaa"/>






















<circle cx="104.26" cy="189.58" r="91.513" fill="#7e8081"/><path d="m254.79 266.25v191.15c0.40085 8e-3 0.78461 0.0312 1.1934 0.0312 3.0875-2.5e-4 5.9502-0.23973 8.375-0.64063v-190.54z" fill="#fff" opacity=".35"/><circle cx="104.26" cy="204.53" r="88.584" fill="#cfd0d3"/><circle cx="104.26" cy="204.53" r="74.357" fill="#fafafa"/></g><path d="m50.362 218.81a55.802 55.179 0 0 1 14.443-53.298 55.802 55.179 0 0 1 53.901-14.281" fill="none" stroke="#1d99f3" stroke-linecap="round" stroke-linejoin="round" stroke-width="12"/><g><path d="m408.64 277.23a57.386 14.883 0 0 0-48.706 7.0473h-8.6207v7.5245a57.386 14.883 0 0 0-0.0482 0.31019 57.386 14.883 0 0 0 57.387 14.883 57.386 14.883 0 0 0 57.373-14.81h0.0482v-7.9082h-8.6786a57.386 14.883 0 0 0-48.745-7.0473z" fill="#464646"/><ellipse cx="408.63" cy="284.46" rx="57.386" ry="14.883" fill="#646464"/><rect x="354.74" y="160.39" width="107.8" height="123.95" fill="#3da921"/><ellipse cx="408.63" cy="160.49" rx="53.789" ry="12.905" fill="#4dbf25"/><ellipse cx="408.63" cy="284.12" rx="53.95" ry="12.905" fill="#39a321"/><path d="m351.31 123v162.13c1.3379 7.9115 26.489 14.219 57.327 14.219 30.835 2e-5 55.986-6.3077 57.324-14.219v-162.13z" fill="#aff3f5" opacity=".4"/><path d="m408.64 108.18a57.386 14.883 0 0 0-50.707 7.9343h-6.6777v6.9302a57.386 14.883 0 0 0 0 0.0188 57.386 14.883 0 0 0 0 0.0131v0.0537a57.386 14.883 0 0 0 57.375 14.812 57.386 14.883 0 0 0 57.385-14.878 57.386 14.883 0 0 0 0-0.0509v-6.8978h-6.668a57.386 14.883 0 0 0-50.707-7.9343z" fill="#464646"/></g><path d="m408.64 101.88a57.386 14.883 0 0 0-57.386 14.883 57.386 14.883 0 0 0 57.386 14.879 57.386 14.883 0 0 0 57.386-14.879 57.386 14.883 0 0 0-57.386-14.883z" fill="#646464" stroke-width="5.7577"/><path d="m408.64 109.14a23.85 6.3867 0 0 0-23.85 6.3869 23.85 6.3867 0 0 0 23.85 6.3849 23.85 6.3867 0 0 0 23.85-6.3849 23.85 6.3867 0 0 0-23.85-6.3869z" fill="url(#radialGradient2014)" stroke-width="2.4315"/><path d="m388.58 103.41v11.088c0.024 2.8668 8.9944 5.1872 20.05 5.1874 11.07-8e-5 20.045-2.3273 20.05-5.1986v-0.0524-11.023z" fill="#bebebe"/><path d="m408.63 98.224a20.051 5.2002 0 0 0-20.051 5.2004 20.051 5.2002 0 0 0 20.051 5.1987 20.051 5.2002 0 0 0 20.051-5.1987 20.051 5.2002 0 0 0-20.051-5.2004z" fill="#dcdcdc" stroke-width="2.0118"/><path d="m455.96 131.45a57.386 14.883 0 0 1-43.465 6.4419v169.06a57.386 14.883 0 0 0 43.465-6.4469zm-91.465 1.1025v169.07a57.386 14.883 0 0 0 14.575 3.2365v-169.06a57.386 14.883 0 0 1-14.575-3.244z" fill="#fff" opacity=".27"/><path id="glass" d="m465.96 244.23c-16.871 2.9798-37.258 4.8766-59.377 5.2637-20.354-0.35622-39.242-1.9921-55.273-4.5723v34.207c1.3379 7.9115 26.488 14.219 57.326 14.219 20.637 1e-5 38.716-2.8278 48.826-7.0684 0.40481-0.17472 0.80329-0.35095 1.2031-0.52734 4.2814-1.9733 6.8891-4.2234 7.2949-6.623z" opacity=".1"/><path d="m512.3 236.46c0.12179 0.39974 0.20714 0.80007 0.25602 1.2007-0.0447-0.42811-0.13273-0.82584-0.25602-1.2007zm-211.44 0c-0.12179 0.39974-0.20715 0.80007-0.25605 1.2007 0.0446-0.42811 0.1328-0.82584 0.25605-1.2007zm211.73 2.0952c-0.098 22.015-18.979 40.653-18.979 40.653-0.0543 0.0124-0.10453 0.0235-0.15882 0.0361-8.5485 10.241-44.216 32.866-86.877 35.586-42.661-2.7205-78.328-25.346-86.877-35.586-0.0543-0.0124-0.1044-0.0231-0.15879-0.0361 0 0-18.881-18.638-18.979-40.653 0.98197 14.321 47.459 25.91 106.01 26.935 58.556-1.0248 105.03-12.615 106.01-26.935z" fill="url(#linearGradient1946)"/><g transform="rotate(45 154.42 70.659)"><circle cx="215.78" cy="140.09" r="1.3331" fill="#e30016"/><path d="m207.08 207.19 7.3664-67.137h2.6662l7.3664 67.137z" fill="#1d99f3"/></g><g><ellipse cx="104.26" cy="207.24" rx="14.321" ry="14.321" fill="#1d99f3"/><path d="m241.06 261.82a10.001 10.001 0 0 0-7.0039 2.7109s-4.6837 4.1504-12.537 9.9629c1.4674 6.9243 4.9008 13.121 9.6895 17.98 3.5935-2.6411 6.7102-5.0652 9.1797-7.0703v13.846c5.0208 2.6085 10.721 4.0918 16.77 4.0918 5.1516 3e-5 10.05-1.0754 14.492-3.0039v-14.531c2.7543 2.2221 6.2171 4.9013 10.262 7.8242 4.9926-4.6265 8.6885-10.63 10.477-17.412-9.2738-6.7028-14.898-11.688-14.898-11.688a10.001 10.001 0 0 0-7.3047-2.7012 10.001 10.001 0 0 0-7.8359 4.4238h-13.15a10.001 10.001 0 0 0-8.1387-4.4336z" color="#000000" color-rendering="auto" dominant-baseline="auto" enable-background="accumulate" image-rendering="auto" opacity=".15" shape-rendering="auto" solid-color="#000000" style="font-feature-settings:normal;font-variant-alternates:normal;font-variant-caps:normal;font-variant-ligatures:normal;font-variant-numeric:normal;font-variant-position:normal;isolation:auto;mix-blend-mode:normal;shape-padding:0;text-decoration-color:#000000;text-decoration-line:none;text-decoration-style:solid;text-indent:0;text-orientation:mixed;text-transform:none;white-space:normal"/><path d="m257.16 238.9c-15.463-1.2e-4 -27.998 12.535-27.998 27.998-1.2e-4 15.463 12.535 27.998 27.998 27.998 15.463 1e-4 27.998-12.535 27.998-27.998 1.2e-4 -15.463-12.535-27.998-27.998-27.998z" fill="#d2d2d2"/><path d="m257.16 250.52c-9.0467-7e-5 -16.381 7.3338-16.381 16.381-6e-5 9.0467 7.3338 16.381 16.381 16.381 9.0467 6e-5 16.381-7.3338 16.381-16.381 6e-5 -9.0467-7.3338-16.381-16.381-16.381z" opacity=".25"/><path d="m22.594 238.64a88.584 88.584 0 0 0 81.668 54.479 88.584 88.584 0 0 0 81.273-53.43c-19.332 5.5988-47.72 9.3243-79.744 9.8848-33.987-0.59484-63.883-4.7522-83.197-10.934z" opacity=".1"/></g><path d="m0.070856 236.46c-0.1218 0.39974-0.20715 0.80007-0.25604 1.2007 0.044637-0.42811 0.13274-0.82584 0.25604-1.2007zm211.44 0c0.12178 0.39974 0.20714 0.80007 0.25604 1.2007-0.0446-0.42811-0.13281-0.82584-0.25604-1.2007zm-211.73 2.0952c0.097925 22.015 18.979 40.653 18.979 40.653 0.05425 0.0124 0.10455 0.0235 0.1588 0.0361 8.5485 10.241 44.216 32.866 86.877 35.586 42.661-2.7205 78.328-25.346 86.877-35.586 0.0543-0.0124 0.10442-0.0231 0.1588-0.0361 0 0 18.881-18.638 18.979-40.653-0.98196 14.321-47.459 25.91-106.01 26.935-58.556-1.0248-105.03-12.615-106.01-26.935z" fill="url(#linearGradient1764)"/></svg>
