<?xml version="1.0" encoding="UTF-8"?>
<!-- Generator: Adobe Illustrator 19.0.0, SVG Export Plug-In . SVG Version: 6.00 Build 0)  -->
<svg enable-background="new 0 0 511.992 511.992" version="1.1" viewBox="0 0 511.99 511.99" xml:space="preserve" xmlns="http://www.w3.org/2000/svg" xmlns:cc="http://creativecommons.org/ns#" xmlns:dc="http://purl.org/dc/elements/1.1/" xmlns:rdf="http://www.w3.org/1999/02/22-rdf-syntax-ns#"><metadata><rdf:RDF><cc:Work rdf:about=""><dc:format>image/svg+xml</dc:format><dc:type rdf:resource="http://purl.org/dc/dcmitype/StillImage"/></cc:Work></rdf:RDF></metadata><g transform="matrix(1.5 0 0 1.5 -.0039913 -264.02)"><polygon points="213.36 421.39 234.67 496 106.67 496 127.94 421.42" fill="#ccd1d9"/></g><path d="m31.989 383.99c-8.8126 0-15.984-7.1716-15.984-15.984v-304.01c0-8.8126 7.1716-16.008 15.984-16.008h448.01c8.8126 0 16.008 7.1956 16.008 16.008v304.01c0 8.8126-7.1956 15.984-16.008 15.984h-448.01z" fill="#f9f9f9"/><path d="m480 32.001h-448.01c-17.672 0-31.992 14.321-31.992 31.992v304.01c0 17.672 14.321 31.992 31.992 31.992h448.01c17.672 0 31.992-14.321 31.992-31.992v-304.01c0-17.672-14.321-31.992-31.992-31.992zm0 336.01h-448.01v-304.01h448.01v304.01z" fill="#e6e9ed"/><rect x="23.926" y="335.99" width="464.16" height="46.594" fill="#e6e9ed"/><path d="m271.99 368.01c0 8.8366-7.1491 15.984-15.984 15.984s-16.008-7.1491-16.008-15.984 7.1716-16.008 16.008-16.008 15.984 7.1716 15.984 16.008z" fill="#434a54"/><path d="m352.01 448h-192c-8.8366 0-16.008 7.1716-16.008 16.008 0 8.8366 7.1716 15.984 16.008 15.984h192c8.8366 0 15.984-7.1491 15.984-15.984 0-8.8351-7.1491-16.008-15.984-16.008z" fill="#e6e9ed"/><path d="m349.94 210.55c0 51.898-41.987 93.876-93.876 93.876-51.889 0-94.017-41.987-94.017-93.876 0-51.889 42.119-94.017 94.017-94.017 51.898 0 93.876 42.119 93.876 94.017z" fill="#1d99f3"/><g transform="matrix(4.2778 0 0 4.2778 -631.77 -287.55)" fill="#fff" stroke-width="1px"><path d="m212.89 130.2v-1.2l-0.96-0.08c-1.8-0.2-2.48-1.12-2.48-3.32v-14.8h-1.36c-2.44 0.44-3.76 0.64-5.88 0.8v1.2l0.8 0.08c2.08 0.2 2.64 0.92 2.64 3.32v9.4c0 2.2-0.72 3.12-2.48 3.32l-1 0.08v1.2h10.72zm-3.08-25.2c0-1.28-1.08-2.36-2.32-2.36-1.32 0-2.4 1.04-2.4 2.36 0 1.28 1.08 2.36 2.36 2.36s2.36-1.08 2.36-2.36z" fill="#fff"/></g></svg>
