<?xml version="1.0" encoding="UTF-8"?>
<!-- Generator: Adobe Illustrator 19.0.0, SVG Export Plug-In . SVG Version: 6.00 Build 0)  -->
<svg enable-background="new 0 0 512.008 512.008" version="1.1" viewBox="0 0 512.01 512.01" xml:space="preserve" xmlns="http://www.w3.org/2000/svg">
<path d="m11.695 490.18c0 11.757 9.543 21.3 21.3 21.3h457.71c11.757 0 21.3-9.543 21.3-21.3v-447.08c0-11.757-9.543-21.284-21.3-21.284h-457.71c-11.757 0-21.3 9.527-21.3 21.284v447.08z" fill="#CCD1D9"/>
<g fill="#434A54">
	<path d="m10.65 64.399c-5.879 0-10.65 4.756-10.65 10.635v85.168c0 5.879 4.771 10.635 10.65 10.635 5.878 0 10.649-4.756 10.649-10.635v-85.169c1e-3 -5.879-4.77-10.634-10.649-10.634z"/>
	<path d="m10.65 319.87c-5.879 0-10.65 4.756-10.65 10.635v85.168c0 5.879 4.771 10.635 10.65 10.635 5.878 0 10.649-4.756 10.649-10.635v-85.168c1e-3 -5.879-4.77-10.635-10.649-10.635z"/>
</g>
<path d="m11.695 468.89c0 11.757 9.543 21.284 21.3 21.284h457.71c11.757 0 21.3-9.527 21.3-21.284v-447.08c0-11.757-9.543-21.284-21.3-21.284h-457.71c-11.757 0-21.3 9.527-21.3 21.284v447.08z" fill="#E6E9ED"/>
<path d="m447.08 245.35c0 5.878 4.771 10.65 10.649 10.65 5.879 0 10.65-4.771 10.65-10.65s-4.771-10.65-10.65-10.65c-5.877 0-10.649 4.772-10.649 10.65z" fill="#434A54"/>
<path d="m149.04 298.57c-11.71 0-21.3-9.574-21.3-21.285v-63.868c0-11.71 9.589-21.284 21.3-21.284h234.17c11.726 0 21.3 9.574 21.3 21.284v63.868c0 11.711-9.574 21.285-21.3 21.285h-234.17z" fill="#0c84db"/>
<path d="m319.34 362.44c0 11.711-9.573 21.301-21.283 21.301h-63.869c-11.71 0-21.284-9.59-21.284-21.301v-234.17c0-11.71 9.574-21.3 21.284-21.3h63.869c11.71 0 21.283 9.589 21.283 21.3v234.17z" fill="#1d99f3"/>















</svg>
