<?xml version="1.0" encoding="UTF-8" standalone="no"?>
<svg
   id="Icon"
   version="1.1"
   viewBox="0 0 63.139004 24.604422"
   width="63.139004"
   height="24.604422"
   xmlns="http://www.w3.org/2000/svg"
   xmlns:svg="http://www.w3.org/2000/svg"
   xmlns:rdf="http://www.w3.org/1999/02/22-rdf-syntax-ns#"
   xmlns:cc="http://creativecommons.org/ns#"
   xmlns:dc="http://purl.org/dc/elements/1.1/">
  <defs
     id="defs14" />
  <metadata
     id="metadata5">
    <rdf:RDF>
      <cc:Work
         rdf:about="">
        <dc:format>image/svg+xml</dc:format>
        <dc:type
           rdf:resource="http://purl.org/dc/dcmitype/StillImage" />
      </cc:Work>
    </rdf:RDF>
  </metadata>
  <g
     id="g1451"
     transform="matrix(0.04821521,0,0,0.04821521,33.055479,8.7391915)">
    <g
       id="g20"
       transform="matrix(1.3333333,0,0,-1.3333333,-223.91092,29.397361)">
      <path
         d="M 0,0 5.363,-16.007 C 5.56,-16.591 5.202,-17.215 4.6,-17.343 l -22.717,-4.809 -10.213,-2.162 c -2.697,12.72 -10.567,24.291 -22.712,31.31 -12.144,7.021 -26.099,8.067 -38.468,4.055 l -3.222,9.929 -7.17,22.086 c -0.191,0.586 0.172,1.207 0.776,1.329 l 16.548,3.34 c 0.466,0.095 0.935,-0.141 1.137,-0.572 l 11.034,-23.501 c 3.289,-0.25 6.576,-0.8 9.827,-1.626 l 17.971,18.763 c 0.329,0.343 0.849,0.417 1.26,0.179 l 14.916,-8.623 c 0.412,-0.237 0.607,-0.725 0.474,-1.181 l -7.29,-24.937 c 2.339,-2.405 4.455,-4.978 6.313,-7.705 L -1.063,0.7 C -0.59,0.739 -0.151,0.451 0,0 M 5.345,-52.399 -0.036,-68.4 c -0.151,-0.451 -0.591,-0.74 -1.065,-0.7 l -25.87,2.197 c -1.86,-2.725 -3.98,-5.296 -6.321,-7.699 l 7.263,-24.945 c 0.133,-0.456 -0.063,-0.943 -0.475,-1.181 l -14.925,-8.606 c -0.411,-0.237 -0.931,-0.163 -1.259,0.181 l -17.952,18.781 c -3.253,-0.822 -6.539,-1.369 -9.829,-1.614 l -11.059,-23.491 c -0.202,-0.429 -0.672,-0.666 -1.138,-0.571 l -16.544,3.359 c -0.603,0.123 -0.966,0.744 -0.774,1.329 l 7.192,22.079 3.234,9.926 c 12.365,-4.025 26.321,-2.995 38.472,4.013 12.151,7.007 20.034,18.569 22.745,31.286 l 10.211,-2.173 22.712,-4.834 c 0.603,-0.128 0.959,-0.752 0.763,-1.336 m -111.993,-17.078 -6.988,-7.755 -15.543,-17.252 c -0.412,-0.457 -1.131,-0.454 -1.538,0.007 l -11.167,12.662 c -0.314,0.356 -0.345,0.88 -0.073,1.27 l 14.836,21.307 c -1.429,2.973 -2.596,6.094 -3.506,9.323 l -25.234,6.183 c -0.461,0.113 -0.785,0.526 -0.785,1.002 l 0.008,17.228 c 0.001,0.475 0.325,0.888 0.787,1.001 l 25.241,6.155 c 0.914,3.228 2.084,6.348 3.516,9.32 l -14.813,21.322 c -0.272,0.391 -0.241,0.915 0.074,1.27 l 11.18,12.649 c 0.408,0.462 1.128,0.465 1.539,0.007 l 15.524,-17.269 6.979,-7.764 c -9.667,-8.696 -15.752,-21.296 -15.76,-35.324 -0.008,-14.027 6.064,-26.635 15.723,-35.342 M -74.78,68.914 c -56.927,0.03 -103.1,-46.093 -103.131,-103.019 -0.03,-56.926 46.095,-103.106 103.021,-103.136 56.929,-0.03 103.104,46.1 103.135,103.026 0.03,56.926 -46.096,103.099 -103.025,103.129"
         style="fill:var(--icon-detail);"
         id="path22" />
    </g>
    <g
       id="g24"
       transform="matrix(1.3333333,0,0,-1.3333333,-474.22865,4.8908285)"
       style="fill:#000000;fill-opacity:1">
      <path
         d="m 0,0 v 42.557 c 0,2.76 -2.238,5 -5,5 h -100.958 -47.557 c -2.761,0 -5,-2.24 -5,-5 v -190 c 0,-2.762 2.239,-5 5,-5 h 42.557 c 2.762,0 5,2.238 5,5 v 63.625 c 0,2.761 2.238,5 5,5 h 81.228 c 2.761,0 5,2.238 5,5 v 42.556 c 0,2.762 -2.239,5 -5,5 h -81.228 c -2.762,0 -5,2.239 -5,5 V -10 c 0,2.762 2.238,5 5,5 H -5 c 2.762,0 5,2.238 5,5"
         style="fill:#000000;fill-opacity:1;fill-rule:nonzero;stroke:none"
         id="path26" />
    </g>
    <g
       id="g28"
       transform="matrix(1.3333333,0,0,-1.3333333,20.562939,119.45323)"
       style="fill:#000000;fill-opacity:1">
      <path
         d="m 0,0 c -9.161,-9.26 -22.099,-14.774 -36.315,-14.033 -24.33,1.269 -43.961,21.164 -44.928,45.508 -1.078,27.121 20.59,49.447 47.472,49.447 13.203,0 25.145,-5.389 33.755,-14.084 C 1.805,65 4.711,64.823 6.715,66.46 l 35.357,28.892 c 2.23,1.821 2.45,5.13 0.516,7.263 -19.094,21.046 -46.767,34.167 -77.504,33.835 -54.616,-0.591 -101.127,-46.921 -101.922,-101.534 -0.838,-57.603 45.591,-104.585 103.01,-104.615 30.313,-0.016 57.574,13.058 76.445,33.879 1.934,2.133 1.717,5.443 -0.513,7.265 L 6.714,0.363 C 4.717,1.994 1.813,1.833 0,0"
         style="fill:#000000;fill-opacity:1;fill-rule:nonzero;stroke:none"
         id="path30" />
    </g>
    <g
       id="g32"
       transform="matrix(1.3333333,0,0,-1.3333333,346.84293,-58.518103)"
       style="fill:#000000;fill-opacity:1">
      <path
         d="m 0,0 h -45.565 c -2.762,0 -5,-2.239 -5,-5 v -104.992 c 0.007,-0.322 0.024,-0.644 0.024,-0.968 0,-20.256 -16.421,-36.677 -36.677,-36.677 -20.255,0 -36.676,16.421 -36.676,36.677 0,0.324 0.016,0.646 0.025,0.968 V -5 c 0,2.761 -2.238,5 -5,5 h -45.566 c -2.761,0 -5,-2.239 -5,-5 v -104.992 h 0.012 c -0.003,-0.323 -0.012,-0.645 -0.012,-0.968 0,-50.931 41.288,-92.218 92.217,-92.218 50.931,0 92.218,41.287 92.218,92.218 0,0.323 -0.009,0.645 -0.013,0.968 H 5 V -5 C 5,-2.239 2.762,0 0,0"
         style="fill:#000000;fill-opacity:1;fill-rule:nonzero;stroke:none"
         id="path34" />
    </g>
    <g
       id="g36"
       transform="matrix(1.3333333,0,0,-1.3333333,538.43799,39.910294)"
       style="fill:#000000;fill-opacity:1">
      <path
         d="m 0,0 h -53.895 c -5.853,0 -10.875,4.579 -10.982,10.432 -0.108,5.962 4.691,10.829 10.63,10.829 h 101.53 c 2.762,0 5,2.239 5,5 v 42.556 c 0,2.762 -2.238,5 -5,5 H -53.306 c -34.726,0 -63.673,-27.624 -64.124,-62.347 -0.457,-35.282 28.006,-64.027 63.183,-64.027 H 0.941 c 5.938,0 10.739,-4.868 10.629,-10.831 -0.107,-5.851 -5.128,-10.43 -10.981,-10.43 h -110.01 c -2.761,0 -5,-2.24 -5,-5 v -42.557 c 0,-2.762 2.239,-5 5,-5 H 0.941 c 35.177,0 63.64,28.744 63.182,64.026 C 63.673,-27.625 34.727,0 0,0"
         style="fill:#000000;fill-opacity:1;fill-rule:nonzero;stroke:none"
         id="path38" />
    </g>
    <g
       id="g40"
       transform="matrix(1.3333333,0,0,-1.3333333,-266.11012,-177.48037)"
       style="fill:#000000;fill-opacity:1">
      <path
         d="m 0,0 -21.078,-31.418 c -0.398,-0.592 -0.398,-1.364 0,-1.956 L 0,-64.792 c 0.782,-1.166 -0.054,-2.732 -1.457,-2.732 h -17.897 c -0.583,0 -1.128,0.29 -1.455,0.773 l -16.454,24.393 c -0.326,0.484 -0.871,0.774 -1.454,0.774 h -2.636 c -0.969,0 -1.754,-0.786 -1.754,-1.755 v -22.363 c 0,-0.969 -0.787,-1.755 -1.755,-1.755 h -14.936 c -0.969,0 -1.754,0.786 -1.754,1.755 v 66.68 c 0,0.969 0.785,1.754 1.754,1.754 h 14.936 c 0.968,0 1.755,-0.785 1.755,-1.754 v -22.363 c 0,-0.969 0.785,-1.755 1.754,-1.755 h 2.681 c 0.584,0 1.129,0.29 1.455,0.774 l 16.408,24.325 c 0.327,0.483 0.872,0.773 1.455,0.773 H -1.457 C -0.054,2.732 0.782,1.166 0,0"
         style="fill:#000000;fill-opacity:1;fill-rule:nonzero;stroke:none"
         id="path42" />
    </g>
    <g
       id="g44"
       transform="matrix(1.3333333,0,0,-1.3333333,190.8208,-181.1977)"
       style="fill:#000000;fill-opacity:1">
      <path
         d="m 0,0 h -35.431 -16.69 c -0.969,0 -1.754,-0.785 -1.754,-1.755 v -14.903 c 0,-0.969 0.783,-1.754 1.751,-1.755 l 15.09,-0.025 c 0.968,-0.002 1.752,-0.788 1.752,-1.755 v -48.242 c 0,-0.968 0.785,-1.754 1.755,-1.754 h 14.934 c 0.969,0 1.755,0.786 1.755,1.754 v 48.236 c 0,0.97 0.785,1.755 1.755,1.755 H 0 c 0.969,0 1.755,0.786 1.755,1.755 V -1.755 C 1.755,-0.785 0.969,0 0,0"
         style="fill:#000000;fill-opacity:1;fill-rule:nonzero;stroke:none"
         id="path46" />
    </g>
    <g
       id="g48"
       transform="matrix(1.3333333,0,0,-1.3333333,-175.53466,-181.2433)"
       style="fill:#000000;fill-opacity:1">
      <path
         d="m 0,0 h -15.991 c -0.969,0 -1.754,-0.786 -1.754,-1.755 v -36.847 c 0.003,-0.113 0.008,-0.225 0.008,-0.339 0,-7.109 -5.763,-12.872 -12.871,-12.872 -7.109,0 -12.871,5.763 -12.871,12.872 0,0.114 0.004,0.226 0.007,0.339 v 36.847 c 0,0.969 -0.785,1.755 -1.754,1.755 h -15.991 c -0.97,0 -1.755,-0.786 -1.755,-1.755 v -36.847 h 0.004 c -10e-4,-0.113 -0.004,-0.226 -0.004,-0.339 0,-17.874 14.49,-32.364 32.364,-32.364 17.874,0 32.363,14.49 32.363,32.364 0,0.113 -0.003,0.226 -0.004,0.339 H 1.755 V -1.755 C 1.755,-0.786 0.97,0 0,0"
         style="fill:#000000;fill-opacity:1;fill-rule:nonzero;stroke:none"
         id="path50" />
    </g>
    <g
       id="g52"
       transform="matrix(1.3333333,0,0,-1.3333333,5.6424061,-181.19383)"
       style="fill:#000000;fill-opacity:1">
      <path
         d="m 0,0 h -15.991 c -0.969,0 -1.755,-0.786 -1.755,-1.755 v -36.847 c 0.003,-0.113 0.009,-0.225 0.009,-0.339 0,-7.109 -5.763,-12.872 -12.871,-12.872 -7.11,0 -12.872,5.763 -12.872,12.872 0,0.114 0.005,0.226 0.008,0.339 v 36.847 c 0,0.969 -0.785,1.755 -1.755,1.755 h -15.991 c -0.968,0 -1.754,-0.786 -1.754,-1.755 v -36.847 h 0.004 c -10e-4,-0.113 -0.004,-0.226 -0.004,-0.339 0,-17.874 14.49,-32.364 32.364,-32.364 17.873,0 32.363,14.49 32.363,32.364 0,0.113 -0.003,0.226 -0.005,0.339 H 1.755 V -1.755 C 1.755,-0.786 0.969,0 0,0"
         style="fill:#000000;fill-opacity:1;fill-rule:nonzero;stroke:none"
         id="path54" />
    </g>
    <g
       id="g56"
       transform="matrix(1.3333333,0,0,-1.3333333,284.20227,-181.2433)"
       style="fill:#000000;fill-opacity:1">
      <path
         d="m 0,0 h -15.991 c -0.969,0 -1.755,-0.786 -1.755,-1.755 v -36.847 c 0.003,-0.113 0.009,-0.225 0.009,-0.339 0,-7.109 -5.763,-12.872 -12.872,-12.872 -7.109,0 -12.871,5.763 -12.871,12.872 0,0.114 0.005,0.226 0.008,0.339 v 36.847 c 0,0.969 -0.786,1.755 -1.755,1.755 h -15.991 c -0.969,0 -1.755,-0.786 -1.755,-1.755 v -36.847 h 0.005 c -10e-4,-0.113 -0.005,-0.226 -0.005,-0.339 0,-17.874 14.491,-32.364 32.364,-32.364 17.874,0 32.364,14.49 32.364,32.364 0,0.113 -0.004,0.226 -0.005,0.339 H 1.755 V -1.755 C 1.755,-0.786 0.969,0 0,0"
         style="fill:#000000;fill-opacity:1;fill-rule:nonzero;stroke:none"
         id="path58" />
    </g>
    <g
       id="g60"
       transform="matrix(1.3333333,0,0,-1.3333333,-112.30026,-112.15997)"
       style="fill:#000000;fill-opacity:1">
      <path
         d="m 0,0 h -19.809 c -0.581,0 -1.052,0.472 -1.052,1.053 v 5.356 c 0,0.581 0.471,1.053 1.052,1.053 H 0.124 C 2.208,7.462 3.893,5.753 3.854,3.66 3.816,1.606 2.055,0 0,0 m -4.3,33.368 c 2.083,0 3.769,-1.709 3.73,-3.801 -0.037,-2.053 -1.8,-3.661 -3.854,-3.661 h -15.385 c -0.581,0 -1.052,0.472 -1.052,1.053 v 5.356 c 0,0.581 0.471,1.053 1.052,1.053 z M 15.477,19.609 c 1.572,3.094 2.445,6.603 2.396,10.323 C 17.715,42.118 7.557,51.813 -4.631,51.813 h -33.976 c -0.969,0 -1.755,-0.787 -1.755,-1.755 V 41.23 35.122 -1.755 -5.944 -16.69 c 0,-0.969 0.786,-1.754 1.755,-1.754 H 0.124 c 12.346,0 22.334,10.087 22.174,22.469 -0.08,6.132 -2.694,11.631 -6.821,15.584"
         style="fill:#000000;fill-opacity:1;fill-rule:nonzero;stroke:none"
         id="path62" />
    </g>
    <g
       id="g64"
       transform="matrix(1.3333333,0,0,-1.3333333,111.908,-178.91383)"
       style="fill:#000000;fill-opacity:1">
      <path
         d="m 0,0 c 0,0.97 -0.785,1.755 -1.755,1.755 h -15.99 C -18.715,1.755 -19.5,0.97 -19.5,0 v -35.63 c 0,-0.977 -1.218,-1.427 -1.854,-0.683 l -31.89,37.322 c -0.058,0.067 -0.124,0.124 -0.189,0.183 -0.028,0.03 -0.057,0.058 -0.088,0.086 0,0 -10e-4,10e-4 -0.002,0.002 -0.313,0.287 -0.726,0.467 -1.184,0.467 h -15.991 c -0.969,0 -1.755,-0.786 -1.755,-1.755 v -66.748 c 0,-0.969 0.786,-1.754 1.755,-1.754 h 15.991 c 0.969,0 1.755,0.785 1.755,1.754 v 34.55 c 0,0.978 1.218,1.428 1.852,0.684 l 31.09,-36.374 c 0.334,-0.389 0.822,-0.614 1.335,-0.614 l 16.92,0.008 c 0.97,0 1.755,0.785 1.755,1.755 z"
         style="fill:#000000;fill-opacity:1;fill-rule:nonzero;stroke:none"
         id="path66" />
    </g>
  </g>
  <text
     xml:space="preserve"
     style="font-style:normal;font-variant:normal;font-weight:normal;font-stretch:normal;font-size:5.94493px;line-height:1.25;font-family:panton_extra_bold;-inkscape-font-specification:'panton_extra_bold, Normal';font-variant-ligatures:normal;font-variant-caps:normal;font-variant-numeric:normal;font-variant-east-asian:normal;fill:#000000;fill-opacity:1;stroke:none;stroke-width:0.148623"
     x="11.706537"
     y="24.515247"
     id="text4154"><tspan
       id="tspan4152"
       x="11.706537"
       y="24.515247"
       style="stroke-width:0.148623">Control Center</tspan></text>
</svg>
