<?xml version="1.0" encoding="UTF-8"?>
<svg id="Icon" width="63.139" height="24.604" version="1.1" viewBox="0 0 63.139 24.604" xmlns="http://www.w3.org/2000/svg" xmlns:cc="http://creativecommons.org/ns#" xmlns:dc="http://purl.org/dc/elements/1.1/" xmlns:rdf="http://www.w3.org/1999/02/22-rdf-syntax-ns#">
  <metadata>
    <rdf:RDF>
      <cc:Work rdf:about="">
        <dc:format>image/svg+xml</dc:format>
        <dc:type rdf:resource="http://purl.org/dc/dcmitype/StillImage"/>
      </cc:Work>
    </rdf:RDF>
  </metadata>
  <path d="m22.26 10.157 0.34477 1.029c0.01266 0.03754-0.01035 0.07766-0.04905 0.08589l-2.117 0.44814c-0.17338-0.81773-0.67932-1.5616-1.4601-2.0128-0.7807-0.45136-1.6778-0.5186-2.473-0.26068l-0.20713-0.63831-0.46094-1.4198c-0.01228-0.037672 0.01106-0.077594 0.04989-0.085437l1.0638-0.21472c0.02996-0.00611 0.06011 0.00906 0.07309 0.036772l0.70934 1.5108c0.21144 0.016072 0.42275 0.05143 0.63175 0.10453l1.1553-1.2062c0.02115-0.02205 0.05458-0.026808 0.081-0.011507l0.9589 0.55435c0.02649 0.015236 0.03902 0.046608 0.03047 0.075923l-0.46865 1.6031c0.15037 0.15461 0.2864 0.32002 0.40584 0.49533l1.6633-0.13937c0.03041-0.0025 0.05863 0.01601 0.06834 0.045m0.34361 3.3686-0.34593 1.0287c-0.0097 0.02899-0.03799 0.04757-0.06847 0.045l-1.6631-0.14124c-0.11957 0.17518-0.25586 0.34046-0.40636 0.49494l0.46692 1.6036c0.0086 0.02932-4e-3 0.06062-0.03054 0.07592l-0.95948 0.55325c-0.02642 0.01524-0.05985 0.01048-0.08094-0.01164l-1.1541-1.2074c-0.20912 0.05284-0.42037 0.08801-0.63188 0.10376l-0.71095 1.5102c-0.01299 0.02758-0.0432 0.04281-0.07316 0.03671l-1.0636-0.21594c-0.03877-0.0079-0.0621-0.04783-0.04976-0.08544l0.46235-1.4194 0.2079-0.63811c0.79491 0.25876 1.6921 0.19254 2.4732-0.25798 0.78115-0.45046 1.2879-1.1937 1.4622-2.0113l0.65643 0.1397 1.4601 0.31076c0.03876 0.0082 0.06165 0.04834 0.04905 0.08589m-7.1997 1.0979-0.44924 0.49855-0.99921 1.1091c-0.02649 0.02938-0.07271 0.02919-0.09887-4.5e-4l-0.71789-0.814c-0.02019-0.02289-0.02218-0.05657-0.0047-0.08164l0.95376-1.3698c-0.09187-0.19112-0.16689-0.39176-0.22539-0.59935l-1.6222-0.39749c-0.02964-0.0073-0.05047-0.03382-0.05047-0.06442l5.15e-4 -1.1075c6.4e-5 -0.03054 0.02089-0.05709 0.05059-0.06435l1.6227-0.39569c0.05876-0.20752 0.13397-0.40809 0.22603-0.59915l-0.95226-1.3707c-0.01749-0.025136-0.01549-0.058823 0.0048-0.081644l0.71873-0.81317c0.02623-0.029701 0.07252-0.029893 0.09894-4.5e-4l0.99799 1.1102 0.44866 0.49912c-0.62146 0.55904-1.0126 1.3691-1.0132 2.2709-5.15e-4 0.90175 0.38984 1.7123 1.0108 2.272m2.0487-8.8967c-3.6597-0.00193-6.628 2.9632-6.63 6.6228-0.0019 3.6596 2.9633 6.6284 6.6229 6.6303 3.6598 0.0019 6.6282-2.9636 6.6302-6.6232 0.0019-3.6596-2.9634-6.6279-6.6232-6.6298" fill="var(--icon-detail)"/>
  <g fill="var(--icon-main)">
    <path d="m10.19 8.975v-2.7359c0-0.17743-0.14387-0.32143-0.32143-0.32143h-9.5476c-0.1775 0-0.32143 0.144-0.32143 0.32143v12.215c0 0.17756 0.14394 0.32143 0.32143 0.32143h2.7359c0.17756 0 0.32143-0.14387 0.32143-0.32143v-4.0903c0-0.1775 0.14387-0.32143 0.32143-0.32143h5.2219c0.1775 0 0.32143-0.14388 0.32143-0.32144v-2.7358c0-0.17756-0.14394-0.32143-0.32143-0.32143h-5.2219c-0.17756 0-0.32143-0.14394-0.32143-0.32144v-0.724c0-0.17756 0.14387-0.32143 0.32143-0.32143h6.1688c0.17756 0 0.32143-0.14387 0.32143-0.32143"/>
    <path d="m34.047 14.499c-0.58893 0.5953-1.4207 0.94978-2.3346 0.90214-1.5641-0.08158-2.8261-1.3606-2.8883-2.9256-0.0693-1.7435 1.3237-3.1788 3.0518-3.1788 0.84878 0 1.6165 0.34644 2.17 0.90542 0.11707 0.11816 0.30388 0.12954 0.43272 0.0243l2.273-1.8574c0.14336-0.11707 0.1575-0.32979 0.03317-0.46692-1.2275-1.353-3.0065-2.1965-4.9825-2.1751-3.5111 0.037994-6.5011 3.0164-6.5523 6.5273-0.05387 3.7031 2.9309 6.7235 6.6222 6.7254 1.9487 1e-3 3.7013-0.83946 4.9144-2.178 0.12433-0.13712 0.11038-0.34991-0.03298-0.46704l-2.2751-1.859c-0.12838-0.10485-0.31507-0.0945-0.43162 0.02334"/>
    <path d="m49.779 5.9177h-2.9292c-0.17756 0-0.32144 0.14394-0.32144 0.32143v6.7496c4.5e-4 0.0207 0.0015 0.0414 0.0015 0.06223 0 1.3022-1.0557 2.3579-2.3579 2.3579-1.3021 0-2.3578-1.0557-2.3578-2.3579 0-0.02083 1e-3 -0.04153 0.0016-0.06223v-6.7496c0-0.1775-0.14387-0.32143-0.32144-0.32143h-2.9292c-0.1775 0-0.32144 0.14394-0.32144 0.32143v6.7496h7.72e-4c-1.93e-4 0.02077-7.72e-4 0.04147-7.72e-4 0.06223 0 3.2742 2.6543 5.9284 5.9284 5.9284 3.2742 0 5.9284-2.6542 5.9284-5.9284 0-0.02077-5.79e-4 -0.04147-8.36e-4 -0.06223h8.36e-4v-6.7496c0-0.1775-0.14387-0.32143-0.32144-0.32143"/>
    <path d="m59.016 10.663h-3.4647c-0.37627 0-0.69912-0.29437-0.706-0.67064-0.0069-0.38328 0.30157-0.69616 0.68337-0.69616h6.5271c0.17756 0 0.32144-0.14394 0.32144-0.32143v-2.7358c0-0.17756-0.14388-0.32143-0.32144-0.32143h-6.4666c-2.2324 0-4.0933 1.7759-4.1223 4.0081-0.02938 2.2682 1.8004 4.1161 4.0618 4.1161h3.5479c0.38174 0 0.69038 0.31295 0.68331 0.69629-0.0069 0.37614-0.32966 0.67051-0.70594 0.67051h-7.0722c-0.1775 0-0.32144 0.144-0.32144 0.32144v2.7359c0 0.17756 0.14394 0.32143 0.32144 0.32143h7.0948c2.2614 0 4.0912-1.8479 4.0618-4.116-0.02893-2.2323-1.8898-4.0082-4.1223-4.0082"/>
    <path d="m20.225 0.18194-1.355 2.0198c-0.02559 0.038058-0.02559 0.087687 0 0.12575l1.355 2.0198c0.05027 0.074959-0.0035 0.17563-0.09367 0.17563h-1.1505c-0.03748 0-0.07251-0.018643-0.09354-0.049694l-1.0578-1.5682c-0.02096-0.031115-0.05599-0.049758-0.09347-0.049758h-0.16946c-0.06229 0-0.11276 0.05053-0.11276 0.11282v1.4376c0 0.062294-0.05059 0.11282-0.11282 0.11282h-0.96019c-0.06229 0-0.11276-0.05053-0.11276-0.11282v-4.2867c0-0.062294 0.05046-0.11276 0.11276-0.11276h0.96019c0.06223 0 0.11282 0.050465 0.11282 0.11276v1.4376c0 0.062294 0.05047 0.11282 0.11276 0.11282h0.17235c0.03754 0 0.07258-0.018643 0.09354-0.049758l1.0548-1.5638c0.02102-0.031051 0.05606-0.049694 0.09354-0.049694h1.1505c0.0902 0 0.14394 0.10067 0.09367 0.17563"/>
    <path d="m42.256 0.0027063h-3.3507c-0.06229 0-0.11276 0.050465-0.11276 0.11282v0.95807c0 0.062294 0.05034 0.11276 0.11257 0.11282l0.97009 0.00161c0.06223 1.286e-4 0.11263 0.050658 0.11263 0.11282v3.1013c0 0.06223 0.05047 0.11276 0.11282 0.11276h0.96006c0.06229 0 0.11282-0.05053 0.11282-0.11276v-3.1009c0-0.062358 0.05047-0.11282 0.11282-0.11282h0.96964c0.06229 0 0.11282-0.05053 0.11282-0.11282v-0.96006c0-0.062358-0.05053-0.11282-0.11282-0.11282"/>
    <path d="m24.592 5.0773e-4h-1.028c-0.06229 0-0.11276 0.05053-0.11276 0.11282v2.3688c1.93e-4 0.00726 5.14e-4 0.014465 5.14e-4 0.021793 0 0.45702-0.37048 0.8275-0.82744 0.8275-0.45702 0-0.82744-0.37049-0.82744-0.8275 0-0.00733 2.57e-4 -0.014529 4.5e-4 -0.021793v-2.3688c0-0.062294-0.05047-0.11282-0.11276-0.11282h-1.028c-0.06236 0-0.11282 0.05053-0.11282 0.11282v2.3688h2.57e-4c-6.4e-5 0.00726-2.57e-4 0.014529-2.57e-4 0.021793 0 1.1491 0.93152 2.0806 2.0806 2.0806s2.0805-0.93152 2.0805-2.0806c0-0.00726-1.93e-4 -0.014529-2.58e-4 -0.021793h2.58e-4v-2.3688c0-0.062294-0.05047-0.11282-0.11282-0.11282"/>
    <path d="m33.328 0.0028929h-1.028c-0.06229 0-0.11282 0.05053-0.11282 0.11282v2.3688c1.93e-4 0.00726 5.78e-4 0.014464 5.78e-4 0.021793 0 0.45702-0.37048 0.8275-0.82744 0.8275-0.45708 0-0.8275-0.37049-0.8275-0.8275 0-0.00733 3.22e-4 -0.014529 5.15e-4 -0.021793v-2.3688c0-0.062294-0.05047-0.11282-0.11282-0.11282h-1.028c-0.06223 0-0.11276 0.05053-0.11276 0.11282v2.3688h2.57e-4c-6.4e-5 0.00726-2.57e-4 0.014529-2.57e-4 0.021793 0 1.1491 0.93152 2.0806 2.0806 2.0806 1.149 0 2.0805-0.93152 2.0805-2.0806 0-0.00726-1.93e-4 -0.014529-3.22e-4 -0.021793h3.22e-4v-2.3688c0-0.062294-0.05053-0.11282-0.11282-0.11282"/>
    <path d="m46.758 5.0773e-4h-1.028c-0.06229 0-0.11282 0.05053-0.11282 0.11282v2.3688c1.93e-4 0.00726 5.78e-4 0.014465 5.78e-4 0.021793 0 0.45702-0.37048 0.8275-0.8275 0.8275s-0.82744-0.37049-0.82744-0.8275c0-0.00733 3.22e-4 -0.014529 5.15e-4 -0.021793v-2.3688c0-0.062294-0.05053-0.11282-0.11282-0.11282h-1.028c-0.06229 0-0.11282 0.05053-0.11282 0.11282v2.3688h3.21e-4c-6.4e-5 0.00726-3.21e-4 0.014529-3.21e-4 0.021793 0 1.1491 0.93158 2.0806 2.0806 2.0806 1.1491 0 2.0806-0.93152 2.0806-2.0806 0-0.00726-2.58e-4 -0.014529-3.22e-4 -0.021793h3.22e-4v-2.3688c0-0.062294-0.05053-0.11282-0.11282-0.11282"/>
    <path d="m27.641 3.3314h-1.2735c-0.03735 0-0.06763-0.030343-0.06763-0.067694v-0.34432c0-0.037351 0.03028-0.067694 0.06763-0.067694h1.2814c0.13397 0 0.2423 0.10987 0.23979 0.24442-0.0024 0.13205-0.11565 0.23529-0.24776 0.23529m-0.27643-2.1451c0.13391 0 0.2423 0.10987 0.23979 0.24435-0.0024 0.13198-0.11572 0.23535-0.24776 0.23535h-0.98906c-0.03735 0-0.06763-0.030344-0.06763-0.067694v-0.34432c0-0.037351 0.03028-0.067694 0.06763-0.067694zm1.2714 0.88452c0.10106-0.1989 0.15718-0.42449 0.15403-0.66363-0.010158-0.7834-0.66318-1.4067-1.4467-1.4067h-2.1842c-0.06229 0-0.11282 0.050594-0.11282 0.11282v4.291c0 0.062294 0.05053 0.11276 0.11282 0.11276h2.4899c0.79369 0 1.4358-0.64846 1.4255-1.4445-0.0051-0.39421-0.17319-0.74772-0.4385-1.0018"/>
    <path d="m38.451 0.11282c0-0.062358-0.050465-0.11282-0.11282-0.11282h-1.0279c-0.06236 0-0.11282 0.050465-0.11282 0.11282v2.2905c0 0.062808-0.0783 0.091737-0.11919 0.043908l-2.0501-2.3993c-0.0037-0.0043072-8e-3 -0.0079716-0.01215-0.011765-0.0018-0.0019286-0.0037-0.0037287-0.0057-0.0055287l-1.28e-4 -1.2858e-4c-0.02012-0.01845-0.04667-0.030022-0.07612-0.030022h-1.028c-0.06229 0-0.11282 0.05053-0.11282 0.11282v4.291c0 0.062294 0.05053 0.11276 0.11282 0.11276h1.028c0.06229 0 0.11282-0.050465 0.11282-0.11276v-2.2211c0-0.062873 0.0783-0.091802 0.11906-0.043972l1.9987 2.3384c0.02147 0.025008 0.05284 0.039472 0.08582 0.039472l1.0877-5.143e-4c0.06236 0 0.11282-0.050465 0.11282-0.11282z"/>
    <path d="m13.74 24.604c0.8739 0 1.4268-0.35669 1.6646-0.99874 0.05945-0.16646 0.01783-0.24969-0.15457-0.30914l-0.45776-0.16051c-0.16646-0.06539-0.2378-0.02378-0.30913 0.14862-0.10701 0.2913-0.35075 0.43992-0.74311 0.43992-0.52315 0-0.79067-0.24374-0.79067-0.71339v-1.2128c0-0.46965 0.26752-0.71339 0.79067-0.71339 0.39236 0 0.63016 0.14862 0.74311 0.43992 0.06539 0.1724 0.13673 0.20213 0.30913 0.14862l0.45776-0.16051c0.1724-0.05945 0.21402-0.14268 0.15457-0.30914-0.2378-0.64205-0.79067-0.99874-1.6646-0.99874-1.1295 0-1.7597 0.61232-1.7597 1.5992v1.2009c0 0.98685 0.63016 1.5992 1.7597 1.5992z"/>
    <path d="m17.229 24.604c0.93929 0 1.4208-0.46965 1.4208-1.2484v-0.76689c0-0.77878-0.48154-1.2544-1.4208-1.2544-0.9274 0-1.4149 0.47559-1.4149 1.2544v0.76689c0 0.77878 0.48748 1.2484 1.4149 1.2484zm0-0.79662c-0.3448 0-0.51721-0.16051-0.51721-0.44587v-0.78473c0-0.2913 0.1724-0.44587 0.51721-0.44587 0.35075 0 0.52315 0.15457 0.52315 0.44587v0.78473c0 0.28536-0.1724 0.44587-0.52315 0.44587z"/>
    <path d="m19.417 24.515h0.45776c0.16646 0 0.21996-0.0535 0.21996-0.21996v-2.0748c0-0.01189 0.01189-0.01784 0.01784-0.02378 0.12484-0.02972 0.25563-0.04756 0.41614-0.04756 0.33886 0 0.50532 0.13673 0.50532 0.44587v1.7002c0 0.16646 0.05945 0.21996 0.21996 0.21996h0.4637c0.16051 0 0.21402-0.0535 0.21402-0.21996v-1.73c0-0.77878-0.40425-1.2306-1.2841-1.2306-0.58854 0-0.96307 0.11295-1.2128 0.21402-0.19618 0.07728-0.2378 0.14862-0.2378 0.3448v2.4017c0 0.16646 0.0535 0.21996 0.21996 0.21996z"/>
    <path d="m24.268 24.515c0.16646 0 0.21996-0.05945 0.21996-0.23185v-0.37453c0-0.1724-0.0535-0.22591-0.21996-0.22591-0.39831 0-0.54693-0.08323-0.54693-0.55288v-0.90957h0.55288c0.16051 0 0.21402-0.05945 0.21402-0.21996v-0.35669c0-0.16646-0.0535-0.21996-0.21402-0.21996h-0.55288v-0.49343c0-0.16646-0.0535-0.21996-0.21402-0.21996h-0.4637c-0.16051 0-0.21996 0.0535-0.21996 0.21996v0.49343h-0.31508c-0.16646 0-0.21996 0.0535-0.21996 0.21996v0.35669c0 0.16051 0.0535 0.21996 0.21996 0.21996h0.31508v0.94524c0 1.0463 0.40425 1.3495 1.4446 1.3495z"/>
    <path d="m25.178 24.515h0.4637c0.16051 0 0.21402-0.0535 0.21402-0.21996v-1.9856c0-0.01783 0.0059-0.03567 0.03567-0.04161 0.13079-0.02972 0.25563-0.04161 0.42209-0.04161h0.21996c0.16646 0 0.21996-0.0535 0.21996-0.21402v-0.36858c0-0.16646-0.0535-0.21996-0.21996-0.21996h-0.19024c-0.55288 0-0.92146 0.09512-1.1474 0.18429-0.19024 0.07134-0.2378 0.14862-0.2378 0.3448v2.3423c0 0.16646 0.05945 0.21996 0.21996 0.21996z"/>
    <path d="m28.429 24.604c0.93929 0 1.4208-0.46965 1.4208-1.2484v-0.76689c0-0.77878-0.48154-1.2544-1.4208-1.2544-0.9274 0-1.4149 0.47559-1.4149 1.2544v0.76689c0 0.77878 0.48748 1.2484 1.4149 1.2484zm0-0.79662c-0.3448 0-0.51721-0.16051-0.51721-0.44587v-0.78473c0-0.2913 0.1724-0.44587 0.51721-0.44587 0.35075 0 0.52315 0.15457 0.52315 0.44587v0.78473c0 0.28536-0.1724 0.44587-0.52315 0.44587z"/>
    <path d="m30.641 24.515h0.45776c0.16646 0 0.21996-0.0535 0.21996-0.21996v-3.9593c0-0.16646-0.0535-0.21996-0.21996-0.21996h-0.45776c-0.16646 0-0.21996 0.0535-0.21996 0.21996v3.9593c0 0.16646 0.0535 0.21996 0.21996 0.21996z"/>
  </g>
  <g fill="var(--icon-detail)">
    <path d="m34.892 24.604c0.8739 0 1.4268-0.35669 1.6646-0.99874 0.05945-0.16646 0.01784-0.24969-0.15457-0.30914l-0.45776-0.16051c-0.16646-0.06539-0.2378-0.02378-0.30914 0.14862-0.10701 0.2913-0.35075 0.43992-0.74311 0.43992-0.52315 0-0.79067-0.24374-0.79067-0.71339v-1.2128c0-0.46965 0.26752-0.71339 0.79067-0.71339 0.39236 0 0.63016 0.14862 0.74311 0.43992 0.06539 0.1724 0.13673 0.20213 0.30914 0.14862l0.45776-0.16051c0.1724-0.05945 0.21402-0.14268 0.15457-0.30914-0.2378-0.64205-0.79067-0.99874-1.6646-0.99874-1.1295 0-1.7597 0.61232-1.7597 1.5992v1.2009c0 0.98685 0.63016 1.5992 1.7597 1.5992z"/>
    <path d="m38.381 24.604c0.67772 0 1.0939-0.20213 1.3079-0.55288 0.10106-0.16051 0.07134-0.26752-0.09512-0.35075l-0.2913-0.14268c-0.1724-0.08917-0.24374-0.06539-0.3448 0.07134-0.10701 0.14268-0.28536 0.2378-0.56477 0.2378-0.33291 0-0.53504-0.14862-0.53504-0.46965v-0.14862h1.6527c0.23185 0 0.30913-0.1189 0.30913-0.29724v-0.36264c0-0.68366-0.44587-1.2544-1.4327-1.2544-0.92146 0-1.4268 0.4637-1.4268 1.3198v0.63016c0 0.74906 0.39831 1.3198 1.4208 1.3198zm-0.52315-2.0034v-0.09512c0-0.29724 0.18429-0.45776 0.5291-0.45776 0.35075 0 0.53504 0.16051 0.53504 0.45776v0.09512z"/>
    <path d="m40.545 24.515h0.45776c0.16646 0 0.21996-0.0535 0.21996-0.21996v-2.0748c0-0.01189 0.01189-0.01784 0.01783-0.02378 0.12484-0.02972 0.25563-0.04756 0.41614-0.04756 0.33886 0 0.50532 0.13673 0.50532 0.44587v1.7002c0 0.16646 0.05945 0.21996 0.21996 0.21996h0.4637c0.16051 0 0.21402-0.0535 0.21402-0.21996v-1.73c0-0.77878-0.40425-1.2306-1.2841-1.2306-0.58855 0-0.96307 0.11295-1.2128 0.21402-0.19618 0.07728-0.2378 0.14862-0.2378 0.3448v2.4017c0 0.16646 0.0535 0.21996 0.21996 0.21996z"/>
    <path d="m45.396 24.515c0.16646 0 0.21996-0.05945 0.21996-0.23185v-0.37453c0-0.1724-0.0535-0.22591-0.21996-0.22591-0.39831 0-0.54693-0.08323-0.54693-0.55288v-0.90957h0.55288c0.16051 0 0.21402-0.05945 0.21402-0.21996v-0.35669c0-0.16646-0.0535-0.21996-0.21402-0.21996h-0.55288v-0.49343c0-0.16646-0.0535-0.21996-0.21402-0.21996h-0.4637c-0.16051 0-0.21996 0.0535-0.21996 0.21996v0.49343h-0.31508c-0.16646 0-0.21996 0.0535-0.21996 0.21996v0.35669c0 0.16051 0.0535 0.21996 0.21996 0.21996h0.31508v0.94524c0 1.0463 0.40425 1.3495 1.4446 1.3495z"/>
    <path d="m47.417 24.604c0.67772 0 1.0939-0.20213 1.3079-0.55288 0.10106-0.16051 0.07134-0.26752-0.09512-0.35075l-0.2913-0.14268c-0.1724-0.08917-0.24374-0.06539-0.3448 0.07134-0.10701 0.14268-0.28536 0.2378-0.56477 0.2378-0.33291 0-0.53504-0.14862-0.53504-0.46965v-0.14862h1.6527c0.23185 0 0.30914-0.1189 0.30914-0.29724v-0.36264c0-0.68366-0.44587-1.2544-1.4327-1.2544-0.92146 0-1.4268 0.4637-1.4268 1.3198v0.63016c0 0.74906 0.39831 1.3198 1.4208 1.3198zm-0.52315-2.0034v-0.09512c0-0.29724 0.18429-0.45776 0.5291-0.45776 0.35075 0 0.53504 0.16051 0.53504 0.45776v0.09512z"/>
    <path d="m49.581 24.515h0.4637c0.16051 0 0.21402-0.0535 0.21402-0.21996v-1.9856c0-0.01783 0.0059-0.03567 0.03567-0.04161 0.13079-0.02972 0.25563-0.04161 0.42209-0.04161h0.21996c0.16646 0 0.21996-0.0535 0.21996-0.21402v-0.36858c0-0.16646-0.0535-0.21996-0.21996-0.21996h-0.19024c-0.55288 0-0.92146 0.09512-1.1474 0.18429-0.19024 0.07134-0.2378 0.14862-0.2378 0.3448v2.3423c0 0.16646 0.05945 0.21996 0.21996 0.21996z"/>
  </g>
</svg>
